
<svg xmlns="http://www.w3.org/2000/svg" data-name="Layer 1" viewBox="0 0 100 125" x="0px" y="0px"><title>Artboard 13</title><path d="M96.75,48.41c-.12,3-3,3.85-4.81,2.21-1.12-1-2.74-.56-2.74,1.38v4.72a2.51,2.51,0,0,1-2.51,2.51H81.94c-1.88,0-2.29-1.64-1.31-2.75,1.63-1.85.76-4.71-2.21-4.83-3,.12-3.85,3-2.21,4.83,1,1.11.56,2.71-1.31,2.75H70.22a2.58,2.58,0,0,1-2.56-2.57V52c0-1.94-1.6-2.37-2.72-1.38-1.85,1.63-4.67.76-4.79-2.21.12-3,3-3.85,4.81-2.21,1.12,1,2.71.56,2.71-1.38V40.2a2.51,2.51,0,0,1,2.51-2.51h4.66c1.94,0,2.37-1.64,1.38-2.76-1.63-1.85-.76-4.71,2.21-4.83,3,.12,3.85,3,2.21,4.83-1,1.12-.56,2.76,1.38,2.76h4.68A2.51,2.51,0,0,1,89.2,40.2v4.62c0,1.94,1.63,2.37,2.76,1.38C93.81,44.56,96.63,45.44,96.75,48.41ZM4,72.55a4.6,4.6,0,0,1-.29-4.43l3.75-8,3.42-7.29a18.91,18.91,0,0,1,5.63-7,64.8,64.8,0,0,1,8.42-5.38l4.58,22,2.28-14.62-1.55-2.49,2.28-2.9-6-3.85V36.25a9.23,9.23,0,0,1-1.15-3.14c-.44,0-1-.65-1.64-2.85-.85-3,.05-3.46.82-3.38a7.9,7.9,0,0,1-.33-1.24h0a8.82,8.82,0,0,1,0-4,8.63,8.63,0,0,1,2.31-4.06,11.14,11.14,0,0,1,2.14-1.77,8.33,8.33,0,0,1,2.08-1.07h0a6.9,6.9,0,0,1,1.89-.36,7.79,7.79,0,0,1,4.75,1,5.9,5.9,0,0,1,2.31,2.15s3.84.27,2.54,8.07a7.92,7.92,0,0,1-.33,1.24c.77-.07,1.67.37.82,3.38-.62,2.2-1.2,2.82-1.64,2.85a9,9,0,0,1-1.15,3.1v2.45l-6,3.85,2.28,2.9-1.55,2.49,2.28,14.62,4.59-22A64.68,64.68,0,0,1,50,46a19.11,19.11,0,0,1,2.19,2h0a18.66,18.66,0,0,1,3,4.22l7,13.41,19.59,1.58a2.65,2.65,0,0,1,0,5.29L60.23,74.11A5.41,5.41,0,0,1,55.6,72L48.85,63l-1,22.6H12.64Zm9.09-1.27,6.22,10.39L18.21,62,13.1,69.66A1.55,1.55,0,0,0,13.06,71.28Z"/><text x="0" y="115" fill="#000000" font-size="5px" font-weight="bold" font-family="'Helvetica Neue', Helvetica, Arial-Unicode, Arial, Sans-serif">Created by Gregor Cresnar</text><text x="0" y="120" fill="#000000" font-size="5px" font-weight="bold" font-family="'Helvetica Neue', Helvetica, Arial-Unicode, Arial, Sans-serif"></svg>