<svg xmlns="http://www.w3.org/2000/svg" xmlns:xlink="http://www.w3.org/1999/xlink" version="1.1" x="0px" y="0px" viewBox="0 0 96 120" enable-background="new 0 0 96 96" xml:space="preserve"><g><path fill="#000000" d="M33.372,21.481c2.89,0,5.239-2.351,5.239-5.238c0-2.889-2.35-5.24-5.239-5.24   c-2.889,0-5.239,2.351-5.239,5.24C28.133,19.13,30.483,21.481,33.372,21.481z M33.372,11.411c2.664,0,4.831,2.168,4.831,4.831   c0,2.663-2.167,4.831-4.831,4.831c-2.664,0-4.83-2.167-4.83-4.831C28.542,13.579,30.708,11.411,33.372,11.411z"/><path fill="#000000" d="M62.627,21.481c2.891,0,5.24-2.351,5.24-5.238c0-2.889-2.35-5.24-5.24-5.24   c-2.888,0-5.238,2.351-5.238,5.24C57.389,19.13,59.739,21.481,62.627,21.481z M62.627,11.411c2.665,0,4.831,2.168,4.831,4.831   c0,2.663-2.166,4.831-4.831,4.831c-2.663,0-4.829-2.167-4.829-4.831C57.798,13.579,59.964,11.411,62.627,11.411z"/><path fill="#000000" d="M88,63.001l-6.867-20.124H65.687l5.68-1.059v-3.4l0.477-0.12l4.149-3.43l-0.074-0.145   c-0.712-1.403-1.757-6.641-2.317-9.454c-0.239-1.195-0.346-1.728-0.396-1.863c-0.385-1.25-2.034-1.441-2.127-1.449l-8.45-0.003   l-8.47,0.003c-0.07,0.008-1.72,0.2-2.109,1.469c-0.046,0.114-0.153,0.646-0.39,1.837c-0.563,2.815-1.608,8.055-2.321,9.459   l-0.074,0.146l4.071,3.387l0.555,0.162v3.4l5.681,1.059h-5.908c-1.286-1.729-3.341-2.855-5.661-2.855   c-2.321,0-4.375,1.126-5.661,2.855h-5.908l5.68-1.059v-3.4l0.477-0.12l4.149-3.43l-0.074-0.145   c-0.712-1.403-1.757-6.641-2.318-9.454c-0.239-1.195-0.346-1.728-0.396-1.863c-0.385-1.25-2.034-1.441-2.127-1.449l-8.45-0.003   l-8.47,0.003c-0.07,0.008-1.72,0.2-2.111,1.469c-0.044,0.114-0.151,0.646-0.389,1.837c-0.563,2.815-1.608,8.055-2.321,9.459   l-0.074,0.146l4.07,3.387l0.555,0.162v3.4l5.681,1.059H14.867L8,63.001h23.953c-0.378,6.313,0.618,19.913,0.618,19.913l3.228,2.081   l1.554-18.166v18.168h21.296v-18.17l1.554,18.168l3.228-2.081c0,0,0.996-13.601,0.618-19.913H88z M54.56,35.506h0.156   c0.739,0,1.34,0.601,1.34,1.341c0,0.738-0.601,1.34-1.34,1.34c-0.025,0-0.05-0.005-0.074-0.008l-0.099-0.01   c-0.139-0.02-0.254-0.049-0.356-0.093l-0.628-0.163l-3.787-3.152c0.733-1.637,1.737-6.672,2.285-9.417   c0.18-0.896,0.333-1.669,0.37-1.767l0.016-0.051c0.307-0.995,1.698-1.156,1.735-1.162l8.449-0.002h8.428   c0.06,0.007,1.451,0.168,1.758,1.162l0.017,0.051c0.037,0.1,0.19,0.875,0.37,1.774c0.548,2.745,1.552,7.777,2.284,9.412   l-3.786,3.152l-0.331,0.085v-0.002l-0.256,0.067l-0.044,0.014c-0.079,0.034-0.172,0.062-0.278,0.08l-0.169,0.021   c-0.025,0.004-0.052,0.009-0.078,0.009c-0.739,0-1.341-0.603-1.341-1.341s0.602-1.34,1.341-1.34h0.155l0.75-2.737l-8.205,1.529   H62.83v8.579h-0.404v-8.578h-0.41l-8.207-1.53L54.56,35.506z M25.304,35.506h0.157c0.739,0,1.34,0.601,1.34,1.341   c0,0.738-0.601,1.34-1.34,1.34c-0.026,0-0.05-0.005-0.075-0.008l-0.098-0.01c-0.138-0.02-0.254-0.049-0.356-0.093l-0.629-0.163   l-3.787-3.152c0.734-1.637,1.738-6.672,2.286-9.417c0.179-0.896,0.333-1.669,0.37-1.767l0.015-0.051   c0.306-0.995,1.699-1.156,1.736-1.162l8.449-0.002H41.8c0.06,0.007,1.451,0.168,1.757,1.162l0.016,0.051   c0.038,0.1,0.191,0.875,0.371,1.774c0.548,2.745,1.552,7.777,2.284,9.412l-3.786,3.152l-0.331,0.085v-0.002l-0.255,0.067   l-0.044,0.014c-0.08,0.034-0.171,0.062-0.278,0.08l-0.169,0.021c-0.026,0.004-0.052,0.009-0.079,0.009   c-0.739,0-1.341-0.603-1.341-1.341s0.602-1.34,1.341-1.34h0.156l0.75-2.737l-8.205,1.529h-0.412v8.579h-0.405v-8.578H32.76   l-8.207-1.53L25.304,35.506z M63.849,61.071c-0.828-4.76-12.171-6.151-12.171-6.151h-3.677H48h-3.678c0,0-11.343,1.39-12.17,6.151   c-0.048,0.275-0.088,0.595-0.123,0.946H9.374l6.197-18.158h26.153c-0.498,0.967-0.783,2.061-0.783,3.222   c0,3.898,3.161,7.06,7.06,7.06s7.06-3.161,7.06-7.06c0-1.161-0.286-2.255-0.783-3.222h26.154l6.195,18.158H63.972   C63.938,61.666,63.897,61.347,63.849,61.071z"/></g><text x="0" y="111" fill="#000000" font-size="5px" font-weight="bold" font-family="'Helvetica Neue', Helvetica, Arial-Unicode, Arial, Sans-serif">Created by Fahmihorizon</text><text x="0" y="116" fill="#000000" font-size="5px" font-weight="bold" font-family="'Helvetica Neue', Helvetica, Arial-Unicode, Arial, Sans-serif"></svg>